<?xml version="1.0" encoding="UTF-8"?>
<svg width="150px" height="46px" viewBox="0 0 150 46" version="1.1" xmlns="http://www.w3.org/2000/svg" xmlns:xlink="http://www.w3.org/1999/xlink">
    <!-- Generator: sketchtool 54.1 (76490) - https://sketchapp.com -->
    <title>09D5072C-39E3-4AAB-9D79-6FA1C5A7D8EA</title>
    <desc>Created with sketchtool.</desc>
    <g id="cecula" stroke="none" stroke-width="1" fill="none" fill-rule="evenodd">
        <g id="Vereafy_Individuals_Guides" transform="translate(-122.000000, -1584.000000)">
            <g id="Group" transform="translate(0.000000, 1248.000000)">
                <g id="Group-Copy" transform="translate(122.000000, 336.000000)">
                    <path d="M23,46 C10.2974508,46 0,35.7025492 0,23 C0,10.2974508 10.2974508,0 23,0 C35.7025492,0 46,10.2974508 46,23 C46,35.7025492 35.7025492,46 23,46 Z M18.293088,38.0781307 C19.9204721,38.6771989 21.6733353,39.0034081 23.5,39.0034081 C32.0604136,39.0034081 39,31.8392012 39,23.0017041 C39,14.1642069 32.0604136,7 23.5,7 C14.9395864,7 8,14.1642069 8,23.0017041 C8,26.4364791 9.04826624,29.6184935 10.832538,32.2253794 L9.15508077,41 L18.293088,38.0781307 Z" id="Combined-Shape" fill="#FF2500"></path>
                    <text id="Cecula" font-family="Montserrat-Bold, Montserrat" font-size="29" font-weight="bold" letter-spacing="-0.800000012" fill="#9D9D9D">
                        <tspan x="55.359" y="34">Cecul</tspan>
                        <tspan x="134.415" y="34">a</tspan>
                    </text>
                </g>
            </g>
        </g>
    </g>
</svg>