<?xml version="1.0" encoding="UTF-8"?>
<svg width="34px" height="34px" viewBox="0 0 34 34" version="1.1" xmlns="http://www.w3.org/2000/svg" xmlns:xlink="http://www.w3.org/1999/xlink">
    <!-- Generator: sketchtool 54.1 (76490) - https://sketchapp.com -->
    <title>6756FE3F-4B13-49A5-9A72-CE6B0931EFF6</title>
    <desc>Created with sketchtool.</desc>
    <g id="cecula" stroke="none" stroke-width="1" fill="none" fill-rule="evenodd">
        <g id="Vereafy_Individuals_Guides" transform="translate(-1218.000000, -1624.000000)" fill-rule="nonzero">
            <g id="Group" transform="translate(0.000000, 1248.000000)">
                <g id="Group-8" transform="translate(1102.000000, 337.000000)">
                    <g id="ant-design:instagram-outline" transform="translate(112.000000, 35.000000)">
                        <g id="Icon" fill="#A4A4A4">
                            <path d="M21,12.5876953 C16.3447266,12.5876953 12.5876953,16.3447266 12.5876953,21 C12.5876953,25.6552734 16.3447266,29.4123047 21,29.4123047 C25.6552734,29.4123047 29.4123047,25.6552734 29.4123047,21 C29.4123047,16.3447266 25.6552734,12.5876953 21,12.5876953 Z M21,26.4673828 C17.9894531,26.4673828 15.5326172,24.0105469 15.5326172,21 C15.5326172,17.9894531 17.9894531,15.5326172 21,15.5326172 C24.0105469,15.5326172 26.4673828,17.9894531 26.4673828,21 C26.4673828,24.0105469 24.0105469,26.4673828 21,26.4673828 Z M29.7568359,10.2826172 C28.6699219,10.2826172 27.7921875,11.1603516 27.7921875,12.2472656 C27.7921875,13.3341797 28.6699219,14.2119141 29.7568359,14.2119141 C30.84375,14.2119141 31.7214844,13.3382812 31.7214844,12.2472656 C31.7221385,11.7260082 31.5153595,11.225912 31.1467745,10.8573271 C30.7781896,10.4887421 30.2780934,10.281963 29.7568359,10.2826172 Z M37.3980469,21 C37.3980469,18.7359375 37.4185547,16.4923828 37.2914063,14.2324219 C37.1642578,11.6074219 36.5654297,9.27773437 34.6458984,7.35820312 C32.7222656,5.43457031 30.3966797,4.83984375 27.7716797,4.71269531 C25.5076172,4.58554687 23.2640625,4.60605469 21.0041016,4.60605469 C18.7400391,4.60605469 16.4964844,4.58554687 14.2365234,4.71269531 C11.6115234,4.83984375 9.28183594,5.43867187 7.36230469,7.35820312 C5.43867187,9.28183594 4.84394531,11.6074219 4.71679688,14.2324219 C4.58964844,16.4964844 4.61015625,18.7400391 4.61015625,21 C4.61015625,23.2599609 4.58964844,25.5076172 4.71679688,27.7675781 C4.84394531,30.3925781 5.44277344,32.7222656 7.36230469,34.6417969 C9.2859375,36.5654297 11.6115234,37.1601562 14.2365234,37.2873047 C16.5005859,37.4144531 18.7441406,37.3939453 21.0041016,37.3939453 C23.2681641,37.3939453 25.5117188,37.4144531 27.7716797,37.2873047 C30.3966797,37.1601562 32.7263672,36.5613281 34.6458984,34.6417969 C36.5695313,32.7181641 37.1642578,30.3925781 37.2914063,27.7675781 C37.4226563,25.5076172 37.3980469,23.2640625 37.3980469,21 Z M33.7886719,30.6714844 C33.4892578,31.4179687 33.1283203,31.9757812 32.55,32.55 C31.9716797,33.1283203 31.4179687,33.4892578 30.6714844,33.7886719 C28.5140625,34.6458984 23.3912109,34.453125 21,34.453125 C18.6087891,34.453125 13.4818359,34.6458984 11.3244141,33.7927734 C10.5779297,33.4933594 10.0201172,33.1324219 9.44589844,32.5541016 C8.86757812,31.9757812 8.50664062,31.4220703 8.20722656,30.6755859 C7.35410156,28.5140625 7.546875,23.3912109 7.546875,21 C7.546875,18.6087891 7.35410156,13.4818359 8.20722656,11.3244141 C8.50664062,10.5779297 8.86757812,10.0201172 9.44589844,9.44589844 C10.0242187,8.87167969 10.5779297,8.50664062 11.3244141,8.20722656 C13.4818359,7.35410156 18.6087891,7.546875 21,7.546875 C23.3912109,7.546875 28.5181641,7.35410156 30.6755859,8.20722656 C31.4220703,8.50664062 31.9798828,8.86757812 32.5541016,9.44589844 C33.1324219,10.0242187 33.4933594,10.5779297 33.7927734,11.3244141 C34.6458984,13.4818359 34.453125,18.6087891 34.453125,21 C34.453125,23.3912109 34.6458984,28.5140625 33.7886719,30.6714844 Z" id="Icon-Shape"></path>
                        </g>
                        <rect id="ViewBox" x="0" y="0" width="42" height="42"></rect>
                    </g>
                </g>
            </g>
        </g>
    </g>
</svg>