<?xml version="1.0" encoding="UTF-8"?>
<svg width="36px" height="36px" viewBox="0 0 36 36" version="1.1" xmlns="http://www.w3.org/2000/svg" xmlns:xlink="http://www.w3.org/1999/xlink">
    <!-- Generator: sketchtool 54.1 (76490) - https://sketchapp.com -->
    <title>A0946FC8-98AA-4E11-B24C-7BF05F7DB2D7</title>
    <desc>Created with sketchtool.</desc>
    <g id="cecula" stroke="none" stroke-width="1" fill="none" fill-rule="evenodd">
        <g id="Vereafy_Individuals_Guides" transform="translate(-1105.000000, -1623.000000)" fill-rule="nonzero">
            <g id="Group" transform="translate(0.000000, 1248.000000)">
                <g id="Group-8" transform="translate(1102.000000, 337.000000)">
                    <g id="jam-linkedin-square" transform="translate(0.000000, 35.000000)">
                        <g id="Icon" fill="#A4A4A4">
                            <path d="M29.75,22.9775 L29.75,29.44725 L25.99975,29.44725 L25.99975,23.40975 C25.99975,21.89425 25.45725,20.86 24.09925,20.86 C23.06325,20.86 22.4455,21.5565 22.17425,22.232 C22.07625,22.4735 22.05,22.8095 22.05,23.1455 L22.05,29.44725 L18.298,29.44725 C18.298,29.44725 18.34875,19.22375 18.298,18.165 L22.05,18.165 L22.05,19.76275 L22.0255,19.7995 L22.05,19.7995 L22.05,19.7645 C22.54875,18.9945 23.43775,17.899 25.431,17.899 C27.8985,17.899 29.75,19.5125 29.75,22.9775 L29.75,22.9775 Z M14.37275,12.72425 C13.09,12.72425 12.25,13.56775 12.25,14.67375 C12.25,15.75875 13.0655,16.625 14.32375,16.625 L14.34825,16.625 C15.65725,16.625 16.471,15.757 16.471,14.67375 C16.4465,13.56775 15.65725,12.72425 14.37275,12.72425 Z M12.47225,29.44725 L16.22425,29.44725 L16.22425,18.165 L12.47225,18.165 L12.47225,29.44725 L12.47225,29.44725 Z" id="Icon-Shape"></path>
                            <path d="M10.5,7 C8.56700338,7 7,8.56700338 7,10.5 L7,31.5 C7,33.4329966 8.56700338,35 10.5,35 L31.5,35 C33.4329966,35 35,33.4329966 35,31.5 L35,10.5 C35,8.56700338 33.4329966,7 31.5,7 L10.5,7 Z M10.5,3.5 L31.5,3.5 C35.3659932,3.5 38.5,6.63400675 38.5,10.5 L38.5,31.5 C38.5,35.3659932 35.3659932,38.5 31.5,38.5 L10.5,38.5 C6.63400675,38.5 3.5,35.3659932 3.5,31.5 L3.5,10.5 C3.5,6.63400675 6.63400675,3.5 10.5,3.5 Z" id="Icon-Shape"></path>
                        </g>
                        <rect id="ViewBox" x="0" y="0" width="42" height="42"></rect>
                    </g>
                </g>
            </g>
        </g>
    </g>
</svg>