<?xml version="1.0" encoding="UTF-8"?>
<svg width="35px" height="29px" viewBox="0 0 35 29" version="1.1" xmlns="http://www.w3.org/2000/svg" xmlns:xlink="http://www.w3.org/1999/xlink">
    <!-- Generator: sketchtool 54.1 (76490) - https://sketchapp.com -->
    <title>2D8E4AA5-4753-4F16-BD1E-DB898ABDEC5A</title>
    <desc>Created with sketchtool.</desc>
    <g id="cecula" stroke="none" stroke-width="1" fill="none" fill-rule="evenodd">
        <g id="Vereafy_Individuals_Guides" transform="translate(-1162.000000, -1627.000000)">
            <g id="Group" transform="translate(0.000000, 1248.000000)">
                <g id="Group-8" transform="translate(1102.000000, 337.000000)">
                    <g id="feather-twitter" transform="translate(60.000000, 39.000000)">
                        <g id="Icon" stroke="#A4A4A4" stroke-linecap="round" stroke-linejoin="round" stroke-width="2">
                            <g id="Icon-Group" transform="translate(1.458333, 2.916667)">
                                <path d="M32.0833333,1.45833333 C30.6868114,2.44340455 29.140574,3.19682598 27.5041667,3.68958333 C25.7051076,1.62099262 22.8059562,0.895583371 20.2447021,1.87316126 C17.6834481,2.85073914 16.0049171,5.32335544 16.0416667,8.06458333 L16.0416667,9.52291667 C10.8363862,9.65788891 5.90920358,7.17787366 2.91666667,2.91666667 C2.91666667,2.91666667 -2.91666667,16.0416667 10.2083333,21.875 C7.20493603,23.9137009 3.62710383,24.9359386 1.11022302e-15,24.7916667 C13.125,32.0833333 29.1666667,24.7916667 29.1666667,8.02083333 C29.1653237,7.61461989 29.1262672,7.2094085 29.05,6.81041667 C30.5383796,5.34259408 31.5887066,3.48937281 32.0833333,1.45833333 Z" id="Icon-Path"></path>
                            </g>
                        </g>
                        <rect id="ViewBox" fill-rule="nonzero" x="0" y="0" width="35" height="35"></rect>
                    </g>
                </g>
            </g>
        </g>
    </g>
</svg>