<?xml version="1.0" encoding="UTF-8"?>
<svg width="42px" height="30px" viewBox="0 0 42 30" version="1.1" xmlns="http://www.w3.org/2000/svg" xmlns:xlink="http://www.w3.org/1999/xlink">
    <!-- Generator: sketchtool 54.1 (76490) - https://sketchapp.com -->
    <title>1A496B3F-2E28-49BD-B5DD-29E854DE0D43</title>
    <desc>Created with sketchtool.</desc>
    <g id="cecula" stroke="none" stroke-width="1" fill="none" fill-rule="evenodd">
        <g id="Vereafy_Individuals_Guides" transform="translate(-1276.000000, -1626.000000)" fill-rule="nonzero">
            <g id="Group" transform="translate(0.000000, 1248.000000)">
                <g id="Group-8" transform="translate(1102.000000, 337.000000)">
                    <g id="ant-design:youtube-outline" transform="translate(172.000000, 33.000000)">
                        <g id="Icon" fill="#A4A4A4">
                            <path d="M43.125,22.8742187 C43.125,22.7753906 43.125,22.6630859 43.1205078,22.5328125 C43.1160156,22.1689453 43.1070313,21.7601562 43.0980469,21.3244141 C43.0621094,20.0710937 42.9992187,18.8222656 42.9003906,17.6453125 C42.765625,16.0236328 42.5679687,14.6714844 42.2984375,13.65625 C41.7196004,11.5001257 40.0375606,9.81466361 37.8826172,9.23144531 C36.6113281,8.89003906 34.1226563,8.67890625 30.61875,8.54863281 C28.9521484,8.48574219 27.16875,8.4453125 25.3853516,8.42285156 C24.7609375,8.41386719 24.1814453,8.409375 23.6603516,8.40488281 L22.3396484,8.40488281 C21.8185547,8.409375 21.2390625,8.41386719 20.6146484,8.42285156 C18.83125,8.4453125 17.0478516,8.48574219 15.38125,8.54863281 C11.8773438,8.68339844 9.38417969,8.89453125 8.11738281,9.23144531 C5.96162595,9.81325977 4.27899414,11.499315 3.7015625,13.65625 C3.42753906,14.6714844 3.234375,16.0236328 3.09960938,17.6453125 C3.00078125,18.8222656 2.93789063,20.0710937 2.90195312,21.3244141 C2.88847656,21.7601562 2.88398437,22.1689453 2.87949219,22.5328125 C2.87949219,22.6630859 2.875,22.7753906 2.875,22.8742187 L2.875,23.1257812 C2.875,23.2246094 2.875,23.3369141 2.87949219,23.4671875 C2.88398437,23.8310547 2.89296875,24.2398437 2.90195312,24.6755859 C2.93789063,25.9289062 3.00078125,27.1777344 3.09960938,28.3546875 C3.234375,29.9763672 3.43203125,31.3285156 3.7015625,32.34375 C4.2765625,34.4955078 5.965625,36.1935547 8.11738281,36.7685547 C9.38417969,37.1099609 11.8773437,37.3210937 15.38125,37.4513672 C17.0478516,37.5142578 18.83125,37.5546875 20.6146484,37.5771484 C21.2390625,37.5861328 21.8185547,37.590625 22.3396484,37.5951172 L23.6603516,37.5951172 C24.1814453,37.590625 24.7609375,37.5861328 25.3853516,37.5771484 C27.16875,37.5546875 28.9521484,37.5142578 30.61875,37.4513672 C34.1226562,37.3166016 36.6158203,37.1054687 37.8826172,36.7685547 C40.034375,36.1935547 41.7234375,34.5 42.2984375,32.34375 C42.5724609,31.3285156 42.765625,29.9763672 42.9003906,28.3546875 C42.9992187,27.1777344 43.0621094,25.9289062 43.0980469,24.6755859 C43.1115234,24.2398437 43.1160156,23.8310547 43.1205078,23.4671875 C43.1205078,23.3369141 43.125,23.2246094 43.125,23.1257812 L43.125,22.8742187 Z M39.890625,23.1078125 C39.890625,23.2021484 39.890625,23.3054687 39.8861328,23.4267578 C39.8816406,23.7771484 39.8726563,24.1634766 39.8636719,24.58125 C39.8322266,25.7761719 39.7693359,26.9710938 39.675,28.0806641 C39.5537109,29.5271484 39.3830078,30.7130859 39.171875,31.5082031 C38.8933594,32.5458984 38.0757812,33.3679687 37.0425781,33.6419922 C36.0992187,33.8935547 33.7228516,34.0957031 30.4929687,34.2169922 C28.8578125,34.2798828 27.096875,34.3203125 25.3404297,34.3427734 C24.725,34.3517578 24.1544922,34.35625 23.6423828,34.35625 L22.3576172,34.35625 L20.6595703,34.3427734 C18.903125,34.3203125 17.1466797,34.2798828 15.5070312,34.2169922 C12.2771484,34.0912109 9.89628906,33.8935547 8.95742187,33.6419922 C7.92421875,33.3634766 7.10664062,32.5458984 6.828125,31.5082031 C6.61699219,30.7130859 6.44628906,29.5271484 6.325,28.0806641 C6.23066406,26.9710937 6.17226562,25.7761719 6.13632812,24.58125 C6.12285156,24.1634766 6.11835937,23.7726562 6.11386719,23.4267578 C6.11386719,23.3054687 6.109375,23.1976562 6.109375,23.1078125 L6.109375,22.8921875 C6.109375,22.7978516 6.109375,22.6945312 6.11386719,22.5732422 C6.11835937,22.2228516 6.12734375,21.8365234 6.13632812,21.41875 C6.16777344,20.2238281 6.23066406,19.0289062 6.325,17.9193359 C6.44628906,16.4728516 6.61699219,15.2869141 6.828125,14.4917969 C7.10664062,13.4541016 7.92421875,12.6320312 8.95742187,12.3580078 C9.90078125,12.1064453 12.2771484,11.9042969 15.5070312,11.7830078 C17.1421875,11.7201172 18.903125,11.6796875 20.6595703,11.6572266 C21.275,11.6482422 21.8455078,11.64375 22.3576172,11.64375 L23.6423828,11.64375 L25.3404297,11.6572266 C27.096875,11.6796875 28.8533203,11.7201172 30.4929687,11.7830078 C33.7228516,11.9087891 36.1037109,12.1064453 37.0425781,12.3580078 C38.0757812,12.6365234 38.8933594,13.4541016 39.171875,14.4917969 C39.3830078,15.2869141 39.5537109,16.4728516 39.675,17.9193359 C39.7693359,19.0289062 39.8277344,20.2238281 39.8636719,21.41875 C39.8771484,21.8365234 39.8816406,22.2273437 39.8861328,22.5732422 C39.8861328,22.6945312 39.890625,22.8023437 39.890625,22.8921875 L39.890625,23.1078125 Z M19.0019531,29.0195312 L29.4238281,22.9550781 L19.0019531,16.9804687 L19.0019531,29.0195312 Z" id="Icon-Shape"></path>
                        </g>
                        <rect id="ViewBox" x="0" y="0" width="46" height="46"></rect>
                    </g>
                </g>
            </g>
        </g>
    </g>
</svg>