<?xml version="1.0" encoding="UTF-8"?>
<svg width="50px" height="50px" viewBox="0 0 50 50" version="1.1" xmlns="http://www.w3.org/2000/svg" xmlns:xlink="http://www.w3.org/1999/xlink">
    <!-- Generator: sketchtool 54.1 (76490) - https://sketchapp.com -->
    <title>4A56B9F5-E970-4FAA-A50C-C5CD85F1F807</title>
    <desc>Created with sketchtool.</desc>
    <g id="cecula" stroke="none" stroke-width="1" fill="none" fill-rule="evenodd">
        <g id="Vereafy_Individuals" transform="translate(-65.000000, -15.000000)">
            <g id="Group-2" transform="translate(65.000000, 15.000000)">
                <g id="Vereafy-icon">
                    <path d="M25.3943089,49.1938776 C11.8633326,49.1938776 0.894308943,38.2248539 0.894308943,24.6938776 C0.894308943,11.1629012 11.8633326,0.193877551 25.3943089,0.193877551 C38.9252853,0.193877551 49.8943089,11.1629012 49.8943089,24.6938776 C49.8943089,38.2248539 38.9252853,49.1938776 25.3943089,49.1938776 Z M19.7774352,40.4474228 C21.53295,41.0733966 23.4238234,41.4142567 25.3943089,41.4142567 C34.6287194,41.4142567 42.1146881,33.928288 42.1146881,24.6938776 C42.1146881,15.4594671 34.6287194,7.9734984 25.3943089,7.9734984 C16.1598985,7.9734984 8.6739298,15.4594671 8.6739298,24.6938776 C8.6739298,28.2829166 9.80473037,31.6078429 11.7294852,34.3318104 L9.91995486,43.5005203 L19.7774352,40.4474228 Z" id="Combined-Shape" fill="#FF2500" transform="translate(25.394309, 24.693878) scale(-1, -1) translate(-25.394309, -24.693878) "></path>
                    <circle id="Oval" fill="#4D4D4D" cx="25.8943089" cy="24.1938776" r="8"></circle>
                </g>
            </g>
        </g>
    </g>
</svg>